<mxfile host="app.diagrams.net" modified="2024-06-20T16:39:48.281Z" agent="Mozilla/5.0 (Windows NT 10.0; Win64; x64) AppleWebKit/537.36 (KHTML, like Gecko) Chrome/126.0.0.0 Safari/537.36" version="24.5.5" etag="q9D4jEXmv6FDYPxaCibw" type="github">
  <diagram name="Page-1" id="-NQbxoQmgcWisK0Jk0nO">
    <mxGraphModel>
      <root>
        <mxCell id="0" />
        <mxCell id="1" parent="0" />
      </root>
    </mxGraphModel>
  </diagram>
</mxfile>
